# xmcd
#
# Track frame offsets:
#	150
#	20176
#	34417
#	52417
#	69497
#	79923
#	98215
#	115136
#	138001
#	153974
#	172458
#	192561
#
# Disc length: 2810 seconds
#
# Revision: 1
# Processed by: cddbd v1.5.2PL0 Copyright (c) Steve Scherf et al.
# Submitted via: audiograbber 1.82.02
#
DISCID=b30af80c
DTITLE=Collin Raye - Fearless
DYEAR=2006
DGENRE=Country
TTITLE0=Just Because
TTITLE1=You've Heard That One Before
TTITLE2=Fearless
TTITLE3=Young As We're Ever Going To Be
TTITLE4=Lady
TTITLE5=Makin' Up Time
TTITLE6=Too Hot To Sleep
TTITLE7=Falling In Love Again
TTITLE8=Something To Say
TTITLE9=Forever Starts Right Now
TTITLE10=My Way
TTITLE11=House Of The Rising Sun
EXTD=Dream`Master
EXTT0=
EXTT1=
EXTT2=
EXTT3=
EXTT4=
EXTT5=
EXTT6=
EXTT7=
EXTT8=
EXTT9=
EXTT10=
EXTT11=
PLAYORDER=
